<svg xmlns="http://www.w3.org/2000/svg" xmlns:xlink="http://www.w3.org/1999/xlink" width="400" zoomAndPan="magnify" viewBox="0 0 300 299.999988" height="400" preserveAspectRatio="xMidYMid meet" version="1.2"><g id="aa761a3a0f"><path style=" stroke:none;fill-rule:nonzero;fill:#ffffff;fill-opacity:1;" d="M 240 45 L 59.953125 45 C 51.703125 45 45 51.796875 45 60.140625 L 45 239.859375 C 45 248.203125 51.703125 255 59.953125 255 L 240 255 C 248.25 255 255 248.203125 255 239.859375 L 255 60.140625 C 255 51.796875 248.25 45 240 45 Z M 108.46875 225 L 77.34375 225 L 77.34375 124.78125 L 108.515625 124.78125 L 108.515625 225 Z M 92.90625 75 C 102.890625 75 110.953125 83.0625 110.953125 93.046875 C 110.953125 103.03125 102.890625 111.09375 92.90625 111.09375 C 82.921875 111.09375 74.859375 103.03125 74.859375 93.046875 C 74.859375 83.0625 82.921875 75 92.90625 75 Z M 225.140625 225 L 194.015625 225 L 194.015625 176.25 C 194.015625 164.625 193.78125 149.671875 177.84375 149.671875 C 161.625 149.671875 159.140625 162.328125 159.140625 175.40625 L 159.140625 225 L 128.015625 225 L 128.015625 124.78125 L 157.875 124.78125 L 157.875 138.46875 L 158.296875 138.46875 C 162.46875 130.59375 172.640625 122.296875 187.78125 122.296875 C 219.28125 122.296875 225.140625 143.0625 225.140625 170.0625 Z M 225.140625 225 "/></g></svg>